<?xml version="1.0" encoding="utf-8"?><svg viewBox="0 0 1235 650" xmlns="http://www.w3.org/2000/svg" xmlns:xlink="http://www.w3.org/1999/xlink"><style>:root>svg{display:none}:root>svg:target{display:block}</style><svg viewBox="0 0 30 20" fill="red" id="Flag_Georgia" xmlns="http://www.w3.org/2000/svg">
    <path fill="#fff" d="M0 0h30v20H0z"/>
    <path d="M13 0h4v20h-4zM0 8h30v4H0z"/>
    <g id="bc">
        <g id="bb">
            <path id="ba" d="M5.797 1.954a5.4 5.4 0 0 0 1.406 0 10.4 10.4 0 0 0 0 4.092 5.4 5.4 0 0 0-1.406 0 10.4 10.4 0 0 0 0-4.092z"/>
            <use transform="rotate(90 6.5 4)" xlink:href="#ba"/>
        </g>
        <use x="17" xlink:href="#bb"/>
    </g>
    <use y="12" xlink:href="#bc"/>
</svg><svg viewBox="0 0 9 6" id="Flag_Russia" xmlns="http://www.w3.org/2000/svg">
    <path fill="#fff" d="M0 0h9v3H0z"/>
    <path fill="#d52b1e" d="M0 3h9v3H0z"/>
    <path fill="#0039a6" d="M0 2h9v2H0z"/>
</svg><svg viewBox="0 0 7410 3900" id="Flag_USAs" xmlns="http://www.w3.org/2000/svg">
    <path fill="#b22234" d="M0 0h7410v3900H0z"/>
    <path d="M0 450h7410m0 600H0m0 600h7410m0 600H0m0 600h7410m0 600H0" stroke="#fff" stroke-width="300"/>
    <path fill="#3c3b6e" d="M0 0h2964v2100H0z"/>
    <g fill="#fff">
        <g id="dd">
            <g id="dc">
                <g id="de">
                    <g id="db">
                        <path id="da" d="m247 90 70.534 217.082-184.66-134.164h228.253L176.466 307.082z"/>
                        <use xlink:href="#da" y="420"/>
                        <use xlink:href="#da" y="840"/>
                        <use xlink:href="#da" y="1260"/>
                    </g>
                    <use xlink:href="#da" y="1680"/>
                </g>
                <use xlink:href="#db" x="247" y="210"/>
            </g>
            <use xlink:href="#dc" x="494"/>
        </g>
        <use xlink:href="#dd" x="988"/>
        <use xlink:href="#dc" x="1976"/>
        <use xlink:href="#de" x="2470"/>
    </g>
</svg><svg fill="none" viewBox="0 0 17 28" id="faceboock" xmlns="http://www.w3.org/2000/svg">
    <path d="M5.04 27.333 5 15.666H0v-5h5V7.333C5 2.84 7.787.666 11.8.666c1.92 0 3.573.133 4.053.2v4.707h-2.787c-2.173 0-2.6 1.04-2.6 2.56v2.533h6.2l-1.667 5h-4.533v11.667H5.039h.001Z" fill="#fff"/>
</svg><svg fill="none" viewBox="0 0 28 28" id="instagram" xmlns="http://www.w3.org/2000/svg">
    <path d="M15.36.667c2.4 0 2.907.027 4.133.08 1.413.067 2.387.293 3.227.627.88.333 1.627.8 2.36 1.533.747.733 1.2 1.48 1.547 2.36.333.84.547 1.813.613 3.24.067 1.267.08 1.76.08 4.427v2.133c0 2.667-.013 3.16-.08 4.427a9.763 9.763 0 0 1-.636 3.294l.022-.067c-.347.88-.8 1.627-1.533 2.36a6.632 6.632 0 0 1-2.373 1.547c-.84.333-1.813.547-3.227.613-1.267.067-1.773.08-4.44.08h-2.12c-2.667 0-3.16-.013-4.44-.08a9.763 9.763 0 0 1-3.294-.636l.067.022a6.575 6.575 0 0 1-2.359-1.533l-.001-.001a6.544 6.544 0 0 1-1.532-2.329l-.015-.045a9.59 9.59 0 0 1-.613-3.217v-.01a70.693 70.693 0 0 1-.08-4.167v.034-2.733c0-2.4.027-2.907.08-4.133.067-1.413.293-2.387.613-3.227.347-.88.8-1.627 1.547-2.36a6.27 6.27 0 0 1 2.317-1.519l.043-.014A9.576 9.576 0 0 1 8.481.747h.012c1.227-.053 1.733-.08 4.133-.08h2.734Zm.027 2.4H12.6c-2.307 0-2.8.027-4 .08-1.293.053-2 .267-2.467.453a4.068 4.068 0 0 0-1.533 1c-.466.467-.76.907-1 1.533-.173.467-.4 1.173-.453 2.48-.053 1.2-.08 1.68-.08 4v2.773c0 2.32.027 2.8.08 4 .053 1.293.267 2 .453 2.467.24.627.533 1.067 1 1.533.467.466.907.76 1.533 1 .467.187 1.173.4 2.48.453 1.293.067 1.76.08 4.64.08h1.48c2.893 0 3.347-.013 4.653-.08 1.293-.053 2-.267 2.467-.453a4.068 4.068 0 0 0 1.533-1c.466-.467.76-.907 1-1.533.187-.467.4-1.173.453-2.467.067-1.307.08-1.76.08-4.653v-1.467c0-2.893-.013-3.36-.08-4.667-.053-1.293-.267-2-.453-2.467a4.142 4.142 0 0 0-.999-1.532l-.001-.001a4.141 4.141 0 0 0-1.505-.991l-.028-.009a7.322 7.322 0 0 0-2.462-.453h-.005a70.03 70.03 0 0 0-4.03-.08h.03l.001.001ZM14 7.147a6.847 6.847 0 1 1 0 13.694 6.847 6.847 0 0 1 0-13.694Zm0 2.4a4.447 4.447 0 1 0 0 8.894 4.447 4.447 0 0 0 0-8.894Zm7.107-4.267a1.6 1.6 0 1 1 0 3.2 1.6 1.6 0 0 1 0-3.2Z" fill="#fff"/>
</svg></svg>